<!--?xml version="1.0" encoding="UTF-8" standalone="no"?-->

<!-- Generated by graphviz version 2.40.1 (20161225.0304)
 -->
<!-- Title: %3 Pages: 1 -->
<svg width="495pt" height="272pt" viewBox="0.00 0.00 495.00 272.00" xmlns="http://www.w3.org/2000/svg" xmlns:xlink="http://www.w3.org/1999/xlink">
<g id="graph0" class="graph" transform="scale(1 1) rotate(0) translate(4 268)">
<title>%3</title>
<polygon fill="#ffffff" stroke="transparent" points="-4,4 -4,-268 491,-268 491,4 -4,4"></polygon>
<!-- Instrument -->
<g id="node1" class="node">
<title>Instrument</title>
<polygon fill="#ae7d4e" stroke="transparent" points="213.5,-80.5 213.5,-105.5 302.5,-105.5 302.5,-80.5 213.5,-80.5"></polygon>
<text text-anchor="start" x="218.5" y="-89.3" font-family="Roboto" font-size="14.00" fill="#ffffff">Instrument</text>
<polygon fill="#ffffff" stroke="transparent" points="213.5,-55.5 213.5,-80.5 302.5,-80.5 302.5,-55.5 213.5,-55.5"></polygon>
<text text-anchor="start" x="218.5" y="-65.3" font-family="Roboto" text-decoration="underline" font-size="14.00" fill="#000000">name</text>
<polygon fill="#ffffff" stroke="transparent" points="213.5,-30.5 213.5,-55.5 302.5,-55.5 302.5,-30.5 213.5,-30.5"></polygon>
<text text-anchor="start" x="218.5" y="-39.3" font-family="Roboto" font-size="14.00" fill="#000000">family</text>
<polygon fill="none" stroke="#000000" points="212,-30 212,-107 303,-107 303,-30 212,-30"></polygon>
</g>
<!-- Guitar -->
<g id="node2" class="node">
<title>Guitar</title>
<polygon fill="#ae7d4e" stroke="transparent" points="356,-157.5 356,-182.5 478,-182.5 478,-157.5 356,-157.5"></polygon>
<text text-anchor="start" x="394.5" y="-166.3" font-family="Roboto" font-size="14.00" fill="#ffffff">Guitar</text>
<polygon fill="#ffffff" stroke="transparent" points="356,-132.5 356,-157.5 478,-157.5 478,-132.5 356,-132.5"></polygon>
<text text-anchor="start" x="361" y="-141.3" font-family="Roboto" font-size="14.00" fill="#000000">type</text>
<polygon fill="#ffffff" stroke="transparent" points="356,-107.5 356,-132.5 478,-132.5 478,-107.5 356,-107.5"></polygon>
<text text-anchor="start" x="361" y="-117.3" font-family="Roboto" text-decoration="underline" font-size="14.00" fill="#000000">#Instrument_id</text>
<polygon fill="none" stroke="#000000" points="355,-107 355,-184 479,-184 479,-107 355,-107"></polygon>
</g>
<!-- Instrument&#45;&#45;Guitar -->
<g id="edge1" class="edge">
<title>Instrument:name--Guitar:Instrument_id</title>
<path fill="none" stroke="#000000" d="M302.5,-67.5C332.5502,-67.5 324.8404,-110.207 347.8106,-118.2146"></path>
<ellipse fill="#000000" stroke="#000000" cx="352.0484" cy="-118.8797" rx="4" ry="4"></ellipse>
</g>
<!-- Piano -->
<g id="node3" class="node">
<title>Piano</title>
<polygon fill="#ae7d4e" stroke="transparent" points="356,-54.5 356,-79.5 478,-79.5 478,-54.5 356,-54.5"></polygon>
<text text-anchor="start" x="397" y="-63.3" font-family="Roboto" font-size="14.00" fill="#ffffff">Piano</text>
<polygon fill="#ffffff" stroke="transparent" points="356,-29.5 356,-54.5 478,-54.5 478,-29.5 356,-29.5"></polygon>
<text text-anchor="start" x="361" y="-38.3" font-family="Roboto" font-size="14.00" fill="#000000">type</text>
<polygon fill="#ffffff" stroke="transparent" points="356,-4.5 356,-29.5 478,-29.5 478,-4.5 356,-4.5"></polygon>
<text text-anchor="start" x="361" y="-14.3" font-family="Roboto" text-decoration="underline" font-size="14.00" fill="#000000">#Instrument_id</text>
<polygon fill="none" stroke="#000000" points="355,-4 355,-81 479,-81 479,-4 355,-4"></polygon>
</g>
<!-- Instrument&#45;&#45;Piano -->
<g id="edge2" class="edge">
<title>Instrument:name--Piano:Instrument_id</title>
<path fill="none" stroke="#000000" d="M302.5,-67.5C332.2708,-67.5 325.0412,-25.6143 347.8744,-17.7607"></path>
<ellipse fill="#000000" stroke="#000000" cx="352.0473" cy="-17.1133" rx="4" ry="4"></ellipse>
</g>
<!-- Musician -->
<g id="node4" class="node">
<title>Musician</title>
<polygon fill="#ae7d4e" stroke="transparent" points="221.5,-233.5 221.5,-258.5 293.5,-258.5 293.5,-233.5 221.5,-233.5"></polygon>
<text text-anchor="start" x="226.5" y="-242.3" font-family="Roboto" font-size="14.00" fill="#ffffff">Musician</text>
<polygon fill="#ffffff" stroke="transparent" points="221.5,-208.5 221.5,-233.5 293.5,-233.5 293.5,-208.5 221.5,-208.5"></polygon>
<text text-anchor="start" x="226.5" y="-218.3" font-family="Roboto" text-decoration="underline" font-size="14.00" fill="#000000">id</text>
<polygon fill="#ffffff" stroke="transparent" points="221.5,-183.5 221.5,-208.5 293.5,-208.5 293.5,-183.5 221.5,-183.5"></polygon>
<text text-anchor="start" x="226.5" y="-192.3" font-family="Roboto" font-size="14.00" fill="#000000">name</text>
<polygon fill="#ffffff" stroke="transparent" points="221.5,-158.5 221.5,-183.5 293.5,-183.5 293.5,-158.5 221.5,-158.5"></polygon>
<text text-anchor="start" x="226.5" y="-167.3" font-family="Roboto" font-size="14.00" fill="#000000">band</text>
<polygon fill="#ffffff" stroke="transparent" points="221.5,-133.5 221.5,-158.5 293.5,-158.5 293.5,-133.5 221.5,-133.5"></polygon>
<text text-anchor="start" x="226.5" y="-142.3" font-family="Roboto" font-size="14.00" fill="#000000">role</text>
<polygon fill="none" stroke="#000000" points="220.5,-133 220.5,-260 294.5,-260 294.5,-133 220.5,-133"></polygon>
</g>
<!-- Play -->
<g id="node5" class="node">
<title>Play</title>
<polygon fill="#ae7d4e" stroke="transparent" points="9,-169.5 9,-194.5 159,-194.5 159,-169.5 9,-169.5"></polygon>
<text text-anchor="start" x="69" y="-178.3" font-family="Roboto" font-size="14.00" fill="#ffffff">Play</text>
<polygon fill="#ffffff" stroke="transparent" points="9,-144.5 9,-169.5 159,-169.5 159,-144.5 9,-144.5"></polygon>
<text text-anchor="start" x="14" y="-154.3" font-family="Roboto" text-decoration="underline" font-size="14.00" fill="#000000">#Musician_id</text>
<polygon fill="#ffffff" stroke="transparent" points="9,-119.5 9,-144.5 159,-144.5 159,-119.5 9,-119.5"></polygon>
<text text-anchor="start" x="14" y="-129.3" font-family="Roboto" text-decoration="underline" font-size="14.00" fill="#000000">#Instrument_name</text>
<polygon fill="#ffffff" stroke="transparent" points="9,-94.5 9,-119.5 159,-119.5 159,-94.5 9,-94.5"></polygon>
<text text-anchor="start" x="14" y="-103.3" font-family="Roboto" font-size="14.00" fill="#000000">event</text>
<polygon fill="none" stroke="#000000" points="8,-93.5 8,-195.5 160,-195.5 160,-93.5 8,-93.5"></polygon>
</g>
<!-- Play&#45;&#45;Instrument -->
<g id="edge4" class="edge">
<title>Play:Instrument_name--Instrument:name</title>
<path fill="none" stroke="#000000" d="M167.0953,-130.2787C193.4304,-121.4307 179.2043,-67.5 213.5,-67.5"></path>
<ellipse fill="#000000" stroke="#000000" cx="162.9552" cy="-130.9032" rx="4" ry="4"></ellipse>
</g>
<!-- Play&#45;&#45;Musician -->
<g id="edge3" class="edge">
<title>Play:Musician_id--Musician:id</title>
<path fill="none" stroke="#000000" d="M166.9606,-158.5053C196.5449,-166.6475 184.6929,-221.5 221.5,-221.5"></path>
<ellipse fill="#000000" stroke="#000000" cx="162.9685" cy="-158.0012" rx="4" ry="4"></ellipse>
</g>
</g>
</svg>
