<!--?xml version="1.0" encoding="UTF-8" standalone="no"?-->

<!-- Generated by graphviz version 2.40.1 (20161225.0304)
 -->
<!-- Title: %3 Pages: 1 -->
<svg width="352pt" height="246pt" viewBox="0.00 0.00 352.00 246.00" xmlns="http://www.w3.org/2000/svg" xmlns:xlink="http://www.w3.org/1999/xlink">
<g id="graph0" class="graph" transform="scale(1 1) rotate(0) translate(4 242)">
<title>%3</title>
<polygon fill="#ffffff" stroke="transparent" points="-4,4 -4,-242 348,-242 348,4 -4,4"></polygon>
<!-- Musician -->
<g id="node1" class="node">
<title>Musician</title>
<polygon fill="#ae7d4e" stroke="transparent" points="122.5,-207.5 122.5,-232.5 194.5,-232.5 194.5,-207.5 122.5,-207.5"></polygon>
<text text-anchor="start" x="127.5" y="-216.3" font-family="Roboto" font-size="14.00" fill="#ffffff">Musician</text>
<polygon fill="#ffffff" stroke="transparent" points="122.5,-182.5 122.5,-207.5 194.5,-207.5 194.5,-182.5 122.5,-182.5"></polygon>
<text text-anchor="start" x="127.5" y="-192.3" font-family="Roboto" text-decoration="underline" font-size="14.00" fill="#000000">id</text>
<polygon fill="#ffffff" stroke="transparent" points="122.5,-157.5 122.5,-182.5 194.5,-182.5 194.5,-157.5 122.5,-157.5"></polygon>
<text text-anchor="start" x="127.5" y="-166.3" font-family="Roboto" font-size="14.00" fill="#000000">name</text>
<polygon fill="#ffffff" stroke="transparent" points="122.5,-132.5 122.5,-157.5 194.5,-157.5 194.5,-132.5 122.5,-132.5"></polygon>
<text text-anchor="start" x="127.5" y="-141.3" font-family="Roboto" font-size="14.00" fill="#000000">band</text>
<polygon fill="#ffffff" stroke="transparent" points="122.5,-107.5 122.5,-132.5 194.5,-132.5 194.5,-107.5 122.5,-107.5"></polygon>
<text text-anchor="start" x="127.5" y="-116.3" font-family="Roboto" font-size="14.00" fill="#000000">role</text>
<polygon fill="none" stroke="#000000" points="121.5,-107 121.5,-234 195.5,-234 195.5,-107 121.5,-107"></polygon>
</g>
<!-- Play -->
<g id="node5" class="node">
<title>Play</title>
<path fill="none" stroke="#d3d3d3" d="M330.5,-149.5C330.5,-149.5 284.5,-149.5 284.5,-149.5 278.5,-149.5 272.5,-143.5 272.5,-137.5 272.5,-137.5 272.5,-123.5 272.5,-123.5 272.5,-117.5 278.5,-111.5 284.5,-111.5 284.5,-111.5 330.5,-111.5 330.5,-111.5 336.5,-111.5 342.5,-117.5 342.5,-123.5 342.5,-123.5 342.5,-137.5 342.5,-137.5 342.5,-143.5 336.5,-149.5 330.5,-149.5"></path>
<text text-anchor="middle" x="307.5" y="-134.3" font-family="Roboto" font-size="14.00" fill="#000000">&lt;Play&gt;</text>
<text text-anchor="middle" x="307.5" y="-119.3" font-family="Roboto" font-size="14.00" fill="#000000">event</text>
</g>
<!-- Musician&#45;&#45;Play -->
<g id="edge4" class="edge">
<title>Musician:name--Play</title>
<path fill="none" stroke="#000000" d="M195.7146,-160.5095C219.1602,-154.2154 249.2436,-146.1393 272.2952,-139.9509"></path>
<text text-anchor="middle" x="241.5" y="-154.3" font-family="Roboto" font-size="14.00" fill="#000000">1,n</text>
</g>
<!-- Instrument -->
<g id="node2" class="node">
<title>Instrument</title>
<polygon fill="#ae7d4e" stroke="transparent" points="114.5,-54.5 114.5,-79.5 203.5,-79.5 203.5,-54.5 114.5,-54.5"></polygon>
<text text-anchor="start" x="119.5" y="-63.3" font-family="Roboto" font-size="14.00" fill="#ffffff">Instrument</text>
<polygon fill="#ffffff" stroke="transparent" points="114.5,-29.5 114.5,-54.5 203.5,-54.5 203.5,-29.5 114.5,-29.5"></polygon>
<text text-anchor="start" x="119.5" y="-39.3" font-family="Roboto" text-decoration="underline" font-size="14.00" fill="#000000">name</text>
<polygon fill="#ffffff" stroke="transparent" points="114.5,-4.5 114.5,-29.5 203.5,-29.5 203.5,-4.5 114.5,-4.5"></polygon>
<text text-anchor="start" x="119.5" y="-13.3" font-family="Roboto" font-size="14.00" fill="#000000">family</text>
<polygon fill="none" stroke="#000000" points="113,-4 113,-81 204,-81 204,-4 113,-4"></polygon>
</g>
<!-- Guitar -->
<g id="node4" class="node">
<title>Guitar</title>
<polygon fill="#ae7d4e" stroke="transparent" points="280.5,-42.5 280.5,-67.5 335.5,-67.5 335.5,-42.5 280.5,-42.5"></polygon>
<text text-anchor="start" x="285.5" y="-51.3" font-family="Roboto" font-size="14.00" fill="#ffffff">Guitar</text>
<polygon fill="#ffffff" stroke="transparent" points="280.5,-17.5 280.5,-42.5 335.5,-42.5 335.5,-17.5 280.5,-17.5"></polygon>
<text text-anchor="start" x="285.5" y="-26.3" font-family="Roboto" font-size="14.00" fill="#000000">type</text>
<polygon fill="none" stroke="#000000" points="279,-16.5 279,-68.5 336,-68.5 336,-16.5 279,-16.5"></polygon>
</g>
<!-- Instrument&#45;&#45;Guitar -->
<g id="edge2" class="edge">
<title>Instrument:name--Guitar:name</title>
<path fill="none" stroke="#000000" stroke-dasharray="5,2" d="M214.2241,-42.5C236.1496,-42.5 260.3961,-42.5 278.672,-42.5"></path>
<polygon fill="#000000" stroke="#000000" points="204.0145,-42.5 214.0146,-38.0001 209.0145,-42.5 214.0145,-42.5001 214.0145,-42.5001 214.0145,-42.5001 209.0145,-42.5 214.0145,-47.0001 204.0145,-42.5 204.0145,-42.5"></polygon>
</g>
<!-- Instrument&#45;&#45;Play -->
<g id="edge3" class="edge">
<title>Instrument:name--Play</title>
<path fill="none" stroke="#000000" d="M204.0145,-69.3811C226.9506,-82.9272 254.2291,-99.038 275.0199,-111.3171"></path>
<text text-anchor="middle" x="241.5" y="-100.3" font-family="Roboto" font-size="14.00" fill="#000000">0,n</text>
</g>
<!-- Piano -->
<g id="node3" class="node">
<title>Piano</title>
<polygon fill="#ae7d4e" stroke="transparent" points="9,-42.5 9,-67.5 59,-67.5 59,-42.5 9,-42.5"></polygon>
<text text-anchor="start" x="14" y="-51.3" font-family="Roboto" font-size="14.00" fill="#ffffff">Piano</text>
<polygon fill="#ffffff" stroke="transparent" points="9,-17.5 9,-42.5 59,-42.5 59,-17.5 9,-17.5"></polygon>
<text text-anchor="start" x="14" y="-26.3" font-family="Roboto" font-size="14.00" fill="#000000">type</text>
<polygon fill="none" stroke="#000000" points="8,-16.5 8,-68.5 60,-68.5 60,-16.5 8,-16.5"></polygon>
</g>
<!-- Piano&#45;&#45;Instrument -->
<g id="edge1" class="edge">
<title>Piano:name--Instrument:name</title>
<path fill="none" stroke="#000000" stroke-dasharray="5,2" d="M60.0993,-42.5C72.4972,-42.5 87.8228,-42.5 102.6578,-42.5"></path>
<polygon fill="#000000" stroke="#000000" points="112.8078,-42.5 102.8078,-47.0001 107.8078,-42.5 102.8078,-42.5001 102.8078,-42.5001 102.8078,-42.5001 107.8078,-42.5 102.8077,-38.0001 112.8078,-42.5 112.8078,-42.5"></polygon>
</g>
</g>
</svg>
